<mxfile host="app.diagrams.net" modified="2020-09-24T02:37:16.874Z" agent="5.0 (Windows NT 10.0; WOW64) AppleWebKit/537.36 (KHTML, like Gecko) Chrome/72.0.3626.81 Safari/537.36 SE 2.X MetaSr 1.0" etag="yadq5sYcbW7EcVHnruR1" version="13.7.4" type="github">
  <diagram id="qRaVvo9Aa0FqV7a5mPzP" name="Page-1">
    <mxGraphModel dx="910" dy="330" grid="1" gridSize="10" guides="1" tooltips="1" connect="1" arrows="1" fold="1" page="1" pageScale="1" pageWidth="827" pageHeight="1169" math="0" shadow="0">
      <root>
        <mxCell id="0" />
        <mxCell id="1" parent="0" />
        <mxCell id="n2RU7nRXW_WSNY8a8ybC-9" style="edgeStyle=orthogonalEdgeStyle;rounded=0;orthogonalLoop=1;jettySize=auto;html=1;entryX=0;entryY=0.5;entryDx=0;entryDy=0;" edge="1" parent="1" source="n2RU7nRXW_WSNY8a8ybC-2" target="n2RU7nRXW_WSNY8a8ybC-3">
          <mxGeometry relative="1" as="geometry" />
        </mxCell>
        <mxCell id="n2RU7nRXW_WSNY8a8ybC-2" value="Query" style="rounded=0;whiteSpace=wrap;html=1;" vertex="1" parent="1">
          <mxGeometry x="120" y="610" width="120" height="60" as="geometry" />
        </mxCell>
        <mxCell id="n2RU7nRXW_WSNY8a8ybC-11" value="" style="edgeStyle=orthogonalEdgeStyle;rounded=0;orthogonalLoop=1;jettySize=auto;html=1;" edge="1" parent="1" source="n2RU7nRXW_WSNY8a8ybC-3" target="n2RU7nRXW_WSNY8a8ybC-4">
          <mxGeometry relative="1" as="geometry" />
        </mxCell>
        <mxCell id="n2RU7nRXW_WSNY8a8ybC-15" value="" style="edgeStyle=orthogonalEdgeStyle;rounded=0;orthogonalLoop=1;jettySize=auto;html=1;" edge="1" parent="1" source="n2RU7nRXW_WSNY8a8ybC-3" target="n2RU7nRXW_WSNY8a8ybC-8">
          <mxGeometry relative="1" as="geometry" />
        </mxCell>
        <mxCell id="n2RU7nRXW_WSNY8a8ybC-3" value="If in keyword set" style="rhombus;whiteSpace=wrap;html=1;" vertex="1" parent="1">
          <mxGeometry x="310" y="600" width="160" height="80" as="geometry" />
        </mxCell>
        <mxCell id="n2RU7nRXW_WSNY8a8ybC-12" value="" style="edgeStyle=orthogonalEdgeStyle;rounded=0;orthogonalLoop=1;jettySize=auto;html=1;" edge="1" parent="1" source="n2RU7nRXW_WSNY8a8ybC-4" target="n2RU7nRXW_WSNY8a8ybC-5">
          <mxGeometry relative="1" as="geometry" />
        </mxCell>
        <mxCell id="n2RU7nRXW_WSNY8a8ybC-4" value="Split" style="shape=parallelogram;perimeter=parallelogramPerimeter;whiteSpace=wrap;html=1;fixedSize=1;" vertex="1" parent="1">
          <mxGeometry x="330" y="500" width="120" height="60" as="geometry" />
        </mxCell>
        <mxCell id="n2RU7nRXW_WSNY8a8ybC-13" style="edgeStyle=orthogonalEdgeStyle;rounded=0;orthogonalLoop=1;jettySize=auto;html=1;entryX=0.5;entryY=0;entryDx=0;entryDy=0;" edge="1" parent="1" source="n2RU7nRXW_WSNY8a8ybC-5" target="n2RU7nRXW_WSNY8a8ybC-6">
          <mxGeometry relative="1" as="geometry">
            <Array as="points">
              <mxPoint x="710" y="530" />
            </Array>
          </mxGeometry>
        </mxCell>
        <mxCell id="n2RU7nRXW_WSNY8a8ybC-5" value="Word relative" style="shape=parallelogram;perimeter=parallelogramPerimeter;whiteSpace=wrap;html=1;fixedSize=1;" vertex="1" parent="1">
          <mxGeometry x="540" y="500" width="120" height="60" as="geometry" />
        </mxCell>
        <mxCell id="n2RU7nRXW_WSNY8a8ybC-6" value="Item relative item" style="shape=parallelogram;perimeter=parallelogramPerimeter;whiteSpace=wrap;html=1;fixedSize=1;" vertex="1" parent="1">
          <mxGeometry x="650" y="610" width="120" height="60" as="geometry" />
        </mxCell>
        <mxCell id="n2RU7nRXW_WSNY8a8ybC-14" style="edgeStyle=orthogonalEdgeStyle;rounded=0;orthogonalLoop=1;jettySize=auto;html=1;entryX=0.5;entryY=1;entryDx=0;entryDy=0;" edge="1" parent="1" source="n2RU7nRXW_WSNY8a8ybC-7" target="n2RU7nRXW_WSNY8a8ybC-6">
          <mxGeometry relative="1" as="geometry">
            <Array as="points">
              <mxPoint x="710" y="760" />
            </Array>
          </mxGeometry>
        </mxCell>
        <mxCell id="n2RU7nRXW_WSNY8a8ybC-7" value="Tag relative item" style="shape=parallelogram;perimeter=parallelogramPerimeter;whiteSpace=wrap;html=1;fixedSize=1;" vertex="1" parent="1">
          <mxGeometry x="530" y="730" width="120" height="60" as="geometry" />
        </mxCell>
        <mxCell id="n2RU7nRXW_WSNY8a8ybC-16" value="" style="edgeStyle=orthogonalEdgeStyle;rounded=0;orthogonalLoop=1;jettySize=auto;html=1;" edge="1" parent="1" source="n2RU7nRXW_WSNY8a8ybC-8" target="n2RU7nRXW_WSNY8a8ybC-7">
          <mxGeometry relative="1" as="geometry" />
        </mxCell>
        <mxCell id="n2RU7nRXW_WSNY8a8ybC-8" value="Keyword relative tags" style="shape=parallelogram;perimeter=parallelogramPerimeter;whiteSpace=wrap;html=1;fixedSize=1;" vertex="1" parent="1">
          <mxGeometry x="305" y="730" width="170" height="60" as="geometry" />
        </mxCell>
        <mxCell id="n2RU7nRXW_WSNY8a8ybC-17" value="Yes" style="text;html=1;strokeColor=none;fillColor=none;align=center;verticalAlign=middle;whiteSpace=wrap;rounded=0;" vertex="1" parent="1">
          <mxGeometry x="400" y="690" width="40" height="20" as="geometry" />
        </mxCell>
      </root>
    </mxGraphModel>
  </diagram>
</mxfile>
